<svg width="235" height="66" viewBox="0 0 235 66" fill="none" xmlns="http://www.w3.org/2000/svg">
<path d="M32.1228 24.0252H0.122074C-0.240212 21.6279 0.144384 20.6394 2.08478 19.636L32.4641 19.8151L32.1228 24.0252Z" fill="#047857"/>
<path d="M21.2549 9.587V0H49V9.35599V46.8954H36.8311L36.9528 10.7421C36.8219 9.76064 36.3975 9.50308 35.1275 9.47149L21.2549 9.587Z" fill="#047857"/>
<path d="M64.9 47.396C63.244 47.396 61.768 47.072 60.472 46.424C59.2 45.752 58.192 44.828 57.448 43.652C56.728 42.452 56.368 41.096 56.368 39.584V29.396H62.632V39.584C62.632 40.064 62.728 40.484 62.92 40.844C63.112 41.204 63.376 41.48 63.712 41.672C64.048 41.864 64.444 41.96 64.9 41.96C65.572 41.96 66.112 41.744 66.52 41.312C66.952 40.88 67.168 40.304 67.168 39.584V29.396H73.432V39.584C73.432 41.12 73.072 42.476 72.352 43.652C71.632 44.828 70.624 45.752 69.328 46.424C68.056 47.072 66.58 47.396 64.9 47.396ZM88.041 47V37.064C88.041 36.248 87.801 35.612 87.321 35.156C86.841 34.676 86.229 34.436 85.485 34.436C84.981 34.436 84.525 34.544 84.117 34.76C83.733 34.976 83.433 35.276 83.217 35.66C83.001 36.044 82.893 36.512 82.893 37.064L80.445 35.912C80.445 34.496 80.757 33.284 81.381 32.276C82.005 31.244 82.857 30.452 83.937 29.9C85.041 29.324 86.289 29.036 87.681 29.036C88.953 29.036 90.081 29.336 91.065 29.936C92.073 30.512 92.865 31.292 93.441 32.276C94.017 33.26 94.305 34.376 94.305 35.624V47H88.041ZM76.629 47V29.396H82.893V47H76.629ZM108.921 47L103.377 37.784L108.885 29.396H115.761L108.921 38.864L109.101 36.56L116.121 47H108.921ZM97.6173 47V20.756H103.881V47H97.6173ZM130.718 47.396C128.774 47.396 126.974 47.072 125.318 46.424C123.662 45.752 122.21 44.828 120.962 43.652C119.738 42.452 118.778 41.048 118.082 39.44C117.41 37.832 117.074 36.092 117.074 34.22C117.074 32.324 117.41 30.584 118.082 29C118.778 27.392 119.738 26 120.962 24.824C122.21 23.648 123.65 22.724 125.282 22.052C126.938 21.38 128.726 21.044 130.646 21.044C132.662 21.044 134.474 21.368 136.082 22.016C137.69 22.64 139.106 23.516 140.33 24.644L136.01 28.964C135.41 28.292 134.666 27.764 133.778 27.38C132.89 26.996 131.846 26.804 130.646 26.804C129.614 26.804 128.666 26.972 127.802 27.308C126.962 27.644 126.23 28.148 125.606 28.82C124.982 29.468 124.49 30.248 124.13 31.16C123.794 32.072 123.626 33.092 123.626 34.22C123.626 35.348 123.794 36.368 124.13 37.28C124.49 38.192 124.982 38.984 125.606 39.656C126.23 40.304 126.962 40.808 127.802 41.168C128.666 41.504 129.614 41.672 130.646 41.672C131.846 41.672 132.902 41.492 133.814 41.132C134.726 40.748 135.506 40.208 136.154 39.512L140.474 43.832C139.226 44.96 137.81 45.836 136.226 46.46C134.666 47.084 132.83 47.396 130.718 47.396ZM146.994 47.036L139.938 29.396H146.634L150.954 43.904H148.326L152.682 29.396H159.378L152.142 47.036H146.994ZM142.818 54.452L148.038 42.968L152.142 47.036L149.118 54.452H142.818ZM169.364 47.396C167.492 47.396 165.8 47 164.288 46.208C162.8 45.416 161.624 44.324 160.76 42.932C159.896 41.54 159.464 39.968 159.464 38.216C159.464 36.44 159.896 34.856 160.76 33.464C161.648 32.072 162.836 30.98 164.324 30.188C165.836 29.372 167.54 28.964 169.436 28.964C170.804 28.964 172.052 29.192 173.18 29.648C174.308 30.104 175.34 30.788 176.276 31.7L172.316 35.66C171.956 35.3 171.536 35.036 171.056 34.868C170.6 34.676 170.06 34.58 169.436 34.58C168.764 34.58 168.152 34.736 167.6 35.048C167.072 35.336 166.64 35.744 166.304 36.272C165.992 36.8 165.836 37.436 165.836 38.18C165.836 38.9 165.992 39.536 166.304 40.088C166.64 40.616 167.072 41.036 167.6 41.348C168.152 41.66 168.764 41.816 169.436 41.816C170.108 41.816 170.684 41.708 171.164 41.492C171.644 41.276 172.064 40.964 172.424 40.556L176.42 44.516C175.436 45.476 174.368 46.196 173.216 46.676C172.088 47.156 170.804 47.396 169.364 47.396ZM178.688 47V20.756H184.952V47H178.688ZM197.529 47.396C195.561 47.396 193.821 47.012 192.309 46.244C190.797 45.452 189.609 44.36 188.745 42.968C187.881 41.576 187.449 39.98 187.449 38.18C187.449 36.404 187.869 34.832 188.709 33.464C189.549 32.072 190.689 30.98 192.129 30.188C193.593 29.372 195.237 28.964 197.061 28.964C198.837 28.964 200.409 29.348 201.777 30.116C203.169 30.86 204.249 31.904 205.017 33.248C205.809 34.568 206.205 36.08 206.205 37.784C206.205 38.144 206.181 38.516 206.133 38.9C206.109 39.26 206.037 39.68 205.917 40.16L190.401 40.232V36.2L203.433 36.092L200.625 37.856C200.601 36.872 200.457 36.068 200.193 35.444C199.929 34.796 199.545 34.304 199.041 33.968C198.537 33.632 197.901 33.464 197.133 33.464C196.341 33.464 195.657 33.656 195.081 34.04C194.505 34.424 194.061 34.964 193.749 35.66C193.437 36.356 193.281 37.196 193.281 38.18C193.281 39.188 193.449 40.052 193.785 40.772C194.121 41.468 194.601 41.996 195.225 42.356C195.849 42.716 196.617 42.896 197.529 42.896C198.393 42.896 199.149 42.752 199.797 42.464C200.469 42.176 201.069 41.732 201.597 41.132L204.873 44.408C204.009 45.392 202.953 46.136 201.705 46.64C200.481 47.144 199.089 47.396 197.529 47.396Z" fill="#047857"/>
<path d="M28.734 51.631C28.7582 52.6301 26.6941 55.1723 25.9459 55.4318C28.2193 55.1566 31.765 55.3617 32.8151 54.9806C34.0319 54.4031 35.1273 53.2483 35.9791 51.0538C36.8309 48.8592 36.709 48.6279 36.8307 47.0109C36.9524 45.3993 48.9197 47.0002 48.9996 47.0109V48.8595C48.9995 51.0554 47.9037 64.683 32.5719 65.838C31.2774 65.9355 30.1945 65.944 29.2975 65.8761H12.7369C15.2924 64.1061 15.9005 59.1389 13.4528 55.4318C11.6415 53.2483 8.84272 51.8619 4.56995 52.1974L1.78479 27.0284H31.442L28.734 51.631ZM17.4283 45.4288L18.9781 48.6476L18.9147 47.5792L21.5074 47.5685C21.8863 47.4976 22.0398 47.4102 22.2408 47.1974L24.275 44.0685L19.6237 44.1193C19.1528 43.9443 19.1605 43.6675 19.3551 43.0548L18.8961 42.7863L17.4283 45.4288ZM11.2467 43.4191C10.5275 44.7516 10.5111 45.3689 10.6022 46.4298C10.9778 47.0688 11.3403 47.3461 11.8903 47.4923H15.8483V43.6847H15.3883V43.9503H12.7194C12.1183 43.9495 11.7927 43.8555 11.2467 43.4191ZM8.94495 38.8136L7.74866 41.0275C7.63765 41.383 7.64647 41.5543 7.74866 41.8243L9.68127 45.0128L11.7985 41.0275C12.1785 40.7077 12.4298 40.8424 12.903 41.2931L13.3629 41.0275L11.6149 38.548L7.93323 38.3712L8.94495 38.8136ZM20.1842 39.4337L20.399 39.8263L20.6432 39.7023L21.8844 41.9757C22.1633 42.488 22.2283 42.8085 22.0807 43.4767C23.6414 43.4694 24.2172 43.1962 25.151 42.6251C25.5642 42.0079 25.6503 41.5698 25.5289 41.0333L23.774 37.8195L23.6881 37.6632L20.1842 39.4337ZM14.1686 32.3038C13.4056 32.2827 12.9708 32.4381 12.5563 32.8156L10.6051 35.923L10.5104 36.0743L13.8971 38.0441L14.1354 37.6642L13.899 37.5275L15.2789 35.3292C15.5904 34.8347 15.8426 34.6157 16.5133 34.3917C15.6999 33.1104 15.1593 32.7774 14.1686 32.3038ZM18.3551 36.0822C18.4431 36.5606 18.1933 36.698 17.5475 36.8546L17.5455 37.3712L20.6559 37.213L22.7174 34.2726L21.7994 34.8781L20.4489 32.7472C20.19 32.4721 20.0331 32.3906 19.7399 32.3351L15.9049 32.2784L18.3551 36.0822Z" fill="#047857"/>
<path d="M7.5 55C10.5376 55 13 57.4624 13 60.5C13 63.5376 10.5376 66 7.5 66C4.46243 66 2 63.5376 2 60.5C2 57.4624 4.46243 55 7.5 55ZM7.5 57C5.567 57 4 58.567 4 60.5C4 62.433 5.567 64 7.5 64C9.433 64 11 62.433 11 60.5C11 58.567 9.433 57 7.5 57Z" fill="#047857"/>
</svg>
