<svg width="910" height="257" viewBox="0 0 910 257" fill="none" xmlns="http://www.w3.org/2000/svg">
<path d="M113.606 94H1.23375C-0.0384367 84.7151 1.3121 80.8862 8.12595 77L114.805 77.6939L113.606 94Z" fill="#047857"/>
<path d="M65.8051 38.2069V1H172.805V37.3103V183H129.985L130.413 42.6897C129.952 38.8808 128.459 37.8812 123.99 37.7586L65.8051 38.2069Z" fill="#047857"/>
<path d="M228.75 184.87C220.93 184.87 213.96 183.34 207.84 180.28C201.833 177.107 197.073 172.743 193.56 167.19C190.16 161.523 188.46 155.12 188.46 147.98V99.87H218.04V147.98C218.04 150.247 218.493 152.23 219.4 153.93C220.307 155.63 221.553 156.933 223.14 157.84C224.727 158.747 226.597 159.2 228.75 159.2C231.923 159.2 234.473 158.18 236.4 156.14C238.44 154.1 239.46 151.38 239.46 147.98V99.87H269.04V147.98C269.04 155.233 267.34 161.637 263.94 167.19C260.54 172.743 255.78 177.107 249.66 180.28C243.653 183.34 236.683 184.87 228.75 184.87ZM338.027 183V136.08C338.027 132.227 336.893 129.223 334.627 127.07C332.36 124.803 329.47 123.67 325.957 123.67C323.577 123.67 321.423 124.18 319.497 125.2C317.683 126.22 316.267 127.637 315.247 129.45C314.227 131.263 313.717 133.473 313.717 136.08L302.157 130.64C302.157 123.953 303.63 118.23 306.577 113.47C309.523 108.597 313.547 104.857 318.647 102.25C323.86 99.53 329.753 98.17 336.327 98.17C342.333 98.17 347.66 99.5867 352.307 102.42C357.067 105.14 360.807 108.823 363.527 113.47C366.247 118.117 367.607 123.387 367.607 129.28V183H338.027ZM284.137 183V99.87H313.717V183H284.137ZM436.628 183L410.448 139.48L436.458 99.87H468.928L436.628 144.58L437.478 133.7L470.628 183H436.628ZM383.248 183V59.07H412.828V183H383.248ZM539.559 184.87C530.379 184.87 521.879 183.34 514.059 180.28C506.239 177.107 499.382 172.743 493.489 167.19C487.709 161.523 483.176 154.893 479.889 147.3C476.716 139.707 475.129 131.49 475.129 122.65C475.129 113.697 476.716 105.48 479.889 98C483.176 90.4067 487.709 83.8333 493.489 78.28C499.382 72.7267 506.182 68.3633 513.889 65.19C521.709 62.0167 530.152 60.43 539.219 60.43C548.739 60.43 557.296 61.96 564.889 65.02C572.482 67.9667 579.169 72.1033 584.949 77.43L564.549 97.83C561.716 94.6567 558.202 92.1633 554.009 90.35C549.816 88.5367 544.886 87.63 539.219 87.63C534.346 87.63 529.869 88.4233 525.789 90.01C521.822 91.5967 518.366 93.9767 515.419 97.15C512.472 100.21 510.149 103.893 508.449 108.2C506.862 112.507 506.069 117.323 506.069 122.65C506.069 127.977 506.862 132.793 508.449 137.1C510.149 141.407 512.472 145.147 515.419 148.32C518.366 151.38 521.822 153.76 525.789 155.46C529.869 157.047 534.346 157.84 539.219 157.84C544.886 157.84 549.872 156.99 554.179 155.29C558.486 153.477 562.169 150.927 565.229 147.64L585.629 168.04C579.736 173.367 573.049 177.503 565.569 180.45C558.202 183.397 549.532 184.87 539.559 184.87ZM616.418 183.17L583.098 99.87H614.718L635.118 168.38H622.708L643.278 99.87H674.898L640.728 183.17H616.418ZM596.698 218.19L621.348 163.96L640.728 183.17L626.448 218.19H596.698ZM722.054 184.87C713.214 184.87 705.224 183 698.084 179.26C691.057 175.52 685.504 170.363 681.424 163.79C677.344 157.217 675.304 149.793 675.304 141.52C675.304 133.133 677.344 125.653 681.424 119.08C685.617 112.507 691.227 107.35 698.254 103.61C705.394 99.7567 713.441 97.83 722.394 97.83C728.854 97.83 734.747 98.9067 740.074 101.06C745.401 103.213 750.274 106.443 754.694 110.75L735.994 129.45C734.294 127.75 732.311 126.503 730.044 125.71C727.891 124.803 725.341 124.35 722.394 124.35C719.221 124.35 716.331 125.087 713.724 126.56C711.231 127.92 709.191 129.847 707.604 132.34C706.131 134.833 705.394 137.837 705.394 141.35C705.394 144.75 706.131 147.753 707.604 150.36C709.191 152.853 711.231 154.837 713.724 156.31C716.331 157.783 719.221 158.52 722.394 158.52C725.567 158.52 728.287 158.01 730.554 156.99C732.821 155.97 734.804 154.497 736.504 152.57L755.374 171.27C750.727 175.803 745.684 179.203 740.244 181.47C734.917 183.737 728.854 184.87 722.054 184.87ZM766.08 183V59.07H795.66V183H766.08ZM855.053 184.87C845.759 184.87 837.543 183.057 830.403 179.43C823.263 175.69 817.653 170.533 813.573 163.96C809.493 157.387 807.453 149.85 807.453 141.35C807.453 132.963 809.436 125.54 813.403 119.08C817.369 112.507 822.753 107.35 829.553 103.61C836.466 99.7567 844.229 97.83 852.843 97.83C861.229 97.83 868.653 99.6433 875.113 103.27C881.686 106.783 886.786 111.713 890.413 118.06C894.153 124.293 896.023 131.433 896.023 139.48C896.023 141.18 895.909 142.937 895.683 144.75C895.569 146.45 895.229 148.433 894.663 150.7L821.393 151.04V132L882.933 131.49L869.673 139.82C869.559 135.173 868.879 131.377 867.633 128.43C866.386 125.37 864.573 123.047 862.193 121.46C859.813 119.873 856.809 119.08 853.183 119.08C849.443 119.08 846.213 119.987 843.493 121.8C840.773 123.613 838.676 126.163 837.203 129.45C835.729 132.737 834.993 136.703 834.993 141.35C834.993 146.11 835.786 150.19 837.373 153.59C838.959 156.877 841.226 159.37 844.173 161.07C847.119 162.77 850.746 163.62 855.053 163.62C859.133 163.62 862.703 162.94 865.763 161.58C868.936 160.22 871.769 158.123 874.263 155.29L889.733 170.76C885.653 175.407 880.666 178.92 874.773 181.3C868.993 183.68 862.419 184.87 855.053 184.87Z" fill="#047857"/>
<path d="M101.44 201.267C101.525 205.143 94.2929 215.004 91.6732 216.009C99.6359 214.941 112.056 215.738 115.733 214.259C119.995 212.019 123.831 207.539 126.814 199.026C129.797 190.514 129.371 189.618 129.797 183.346C130.224 177.073 172.415 183.346 172.415 183.346V190.514C172.415 199.026 168.58 251.893 114.88 256.373C110.347 256.751 106.554 256.782 103.413 256.519H45.4125C54.3623 249.653 56.493 230.388 47.9203 216.009C41.5766 207.539 31.7744 202.162 16.809 203.464L7.05606 105.838H110.921L101.44 201.267ZM61.8432 177.21L67.2699 189.691L67.0473 185.548L76.1303 185.507C77.4573 185.232 77.9946 184.895 78.6986 184.069L85.8227 171.932L69.5336 172.128C67.8836 171.449 67.9085 170.377 68.5902 168L66.9848 166.959L61.8432 177.21ZM40.1928 169.412C37.6737 174.581 37.6169 176.976 37.9359 181.091C39.2518 183.57 40.5219 184.645 42.4486 185.212H56.31V170.442H54.6977V171.473H45.35C43.2447 171.47 42.1058 171.106 40.1928 169.412ZM32.1342 151.551L27.9438 160.138C27.5548 161.517 27.5854 162.181 27.9438 163.229L34.7123 175.595L42.1264 160.138C43.4576 158.897 44.3371 159.419 45.9945 161.168L47.6068 160.138L41.4818 150.521L28.5883 149.833L32.1342 151.551ZM71.4965 153.956L72.2465 155.477L73.102 154.997L77.4506 163.814C78.4274 165.802 78.6544 167.046 78.1371 169.639C83.603 169.611 85.6188 168.55 88.8891 166.335C90.3369 163.94 90.6395 162.242 90.2143 160.16L84.0668 147.694L83.767 147.086L71.4965 153.956ZM50.4262 126.299C47.7539 126.217 46.2336 126.819 44.7816 128.283L37.9467 140.337L37.6137 140.925L49.477 148.562L50.3109 147.093L49.4828 146.56L54.3168 138.034C55.408 136.116 56.2901 135.265 58.64 134.396C55.7909 129.426 53.8965 128.136 50.4262 126.299ZM65.0883 140.956C65.3965 142.812 64.5219 143.344 62.2602 143.951L62.2553 145.954L73.1469 145.342L80.3666 133.938L77.1537 136.283L72.4232 128.021C71.5161 126.952 70.9673 126.637 69.9398 126.422L56.5072 126.201L65.0883 140.956Z" fill="#047857"/>
<path d="M27.0717 214.333C37.7099 214.333 46.3342 223.884 46.3344 235.666C46.3344 247.448 37.71 257 27.0717 257C16.4335 257 7.80997 247.448 7.80997 235.666C7.8102 223.884 16.4337 214.333 27.0717 214.333ZM27.0717 222.091C20.3019 222.091 14.8139 228.169 14.8139 235.667C14.8142 243.164 20.3021 249.242 27.0717 249.242C33.8413 249.242 39.3292 243.164 39.3295 235.667C39.3295 228.169 33.8415 222.091 27.0717 222.091Z" fill="#047857"/>
</svg>
