<svg width="150" height="150" viewBox="0 0 49 66" fill="none" xmlns="http://www.w3.org/2000/svg">
<path d="M32.1228 24.0252H0.122074C-0.240212 21.6279 0.144384 20.6394 2.08478 19.636L32.4641 19.8151L32.1228 24.0252Z" fill="#059669"/>
<path d="M21.2549 9.587V0H49V9.35599V46.8954H36.8311L36.9528 10.7421C36.8219 9.76064 36.3975 9.50308 35.1275 9.47149L21.2549 9.587Z" fill="#059669"/>
<path fill-rule="evenodd" clip-rule="evenodd" d="M49 47.011C49 47.011 36.9529 45.3939 36.8312 47.011C36.8119 47.2666 36.7988 47.4876 36.7869 47.6872V47.6873L36.7869 47.6874C36.7236 48.7502 36.6964 49.2061 35.9793 51.0537C35.1275 53.2483 34.0323 54.4034 32.8154 54.9809C32.2298 55.1936 30.8673 55.2237 29.3823 55.2565H29.3823H29.3822H29.3822C28.2051 55.2826 26.951 55.3103 25.9457 55.432C26.6937 55.173 28.7585 52.6305 28.7343 51.6312L31.4416 27.0284H1.78479L4.56964 52.1978C8.84273 51.8622 11.6416 53.2483 13.4529 55.432C15.9007 59.1391 15.2922 64.1059 12.7368 65.8759H29.2977C30.1947 65.9438 31.2775 65.936 32.5721 65.8385C47.9049 64.6834 49 51.0537 49 48.8591V47.011ZM22.0808 43.4771C22.2285 42.8087 22.1636 42.4881 21.8847 41.9757L20.6431 39.7023L20.3987 39.8259L20.1846 39.4339L23.6881 37.6627L23.7737 37.8195L25.529 41.0336C25.6505 41.5702 25.5641 42.0079 25.1507 42.6254C24.2169 43.1964 23.6415 43.4699 22.0808 43.4771ZM18.9143 47.5788L21.5078 47.5682C21.8867 47.4973 22.04 47.4103 22.2411 47.1974L24.2752 44.0683L19.624 44.1189C19.1529 43.944 19.1601 43.6674 19.3547 43.0546L18.8962 42.7862L17.4283 45.429L18.9778 48.6471L18.9143 47.5788ZM20.4492 32.7475L21.7999 34.8777L22.7173 34.2729L20.6559 37.2131L17.5458 37.371L17.5475 36.8546C18.1933 36.698 18.443 36.5609 18.355 36.0825L15.9047 32.2784L19.7402 32.3354C20.0336 32.3909 20.1902 32.4721 20.4492 32.7475ZM15.2794 35.3292C15.5909 34.8345 15.8426 34.6153 16.5136 34.3912C15.7 33.1098 15.1592 32.7773 14.1683 32.3037C13.4053 32.2825 12.9712 32.4377 12.5566 32.8152L10.6052 35.9228L10.51 36.0744L13.8974 38.0436L14.1354 37.6646L13.8991 37.5272L15.2794 35.3292ZM8.94533 38.8139L7.74882 41.0277C7.63775 41.3835 7.64649 41.5545 7.74882 41.8247L9.68165 45.0127L11.7986 41.0277C12.1787 40.7079 12.4298 40.8426 12.903 41.2934L13.3632 41.0277L11.6145 38.5482L7.9329 38.3711L8.94533 38.8139ZM11.2463 43.4187C11.7926 43.8554 12.1178 43.9493 12.719 43.9501H15.3881V43.6844H15.8483V47.4923H15.6642H11.8906C11.3404 47.3461 10.9778 47.0689 10.602 46.4296C10.511 45.3687 10.527 44.7514 11.2463 43.4187Z" fill="#059669"/>
<path fill-rule="evenodd" clip-rule="evenodd" d="M7.5 66C10.5376 66 13 63.5376 13 60.5C13 57.4624 10.5376 55 7.5 55C4.46243 55 2 57.4624 2 60.5C2 63.5376 4.46243 66 7.5 66ZM7.5 64C9.433 64 11 62.433 11 60.5C11 58.567 9.433 57 7.5 57C5.567 57 4 58.567 4 60.5C4 62.433 5.567 64 7.5 64Z" fill="#059669"/>
</svg>