<svg width="235" height="66" viewBox="0 0 235 66" fill="none" xmlns="http://www.w3.org/2000/svg">
<path d="M32.1228 24.0252H0.122074C-0.240212 21.6279 0.144384 20.6394 2.08478 19.636L32.4641 19.8151L32.1228 24.0252Z" fill="white"/>
<path d="M21.2549 9.587V0H49V9.35599V46.8954H36.8311L36.9528 10.7421C36.8219 9.76064 36.3975 9.50308 35.1275 9.47149L21.2549 9.587Z" fill="white"/>
<path d="M62.884 47.396C61.204 47.396 59.752 47.108 58.528 46.532C57.328 45.932 56.272 45.092 55.36 44.012L59.536 39.872C59.968 40.472 60.472 40.928 61.048 41.24C61.648 41.528 62.32 41.672 63.064 41.672C63.712 41.672 64.288 41.54 64.792 41.276C65.32 40.988 65.728 40.58 66.016 40.052C66.328 39.5 66.484 38.804 66.484 37.964V21.476H72.928V37.676C72.928 39.692 72.52 41.432 71.704 42.896C70.912 44.336 69.76 45.452 68.248 46.244C66.76 47.012 64.972 47.396 62.884 47.396ZM84.693 47.396C83.037 47.396 81.561 47.072 80.265 46.424C78.993 45.752 77.985 44.828 77.241 43.652C76.521 42.452 76.161 41.096 76.161 39.584V29.396H82.425V39.584C82.425 40.064 82.521 40.484 82.713 40.844C82.905 41.204 83.169 41.48 83.505 41.672C83.841 41.864 84.237 41.96 84.693 41.96C85.365 41.96 85.905 41.744 86.313 41.312C86.745 40.88 86.961 40.304 86.961 39.584V29.396H93.225V39.584C93.225 41.12 92.865 42.476 92.145 43.652C91.425 44.828 90.417 45.752 89.121 46.424C87.849 47.072 86.373 47.396 84.693 47.396ZM107.834 47V37.064C107.834 36.248 107.594 35.612 107.114 35.156C106.634 34.676 106.022 34.436 105.278 34.436C104.774 34.436 104.318 34.544 103.91 34.76C103.526 34.976 103.226 35.276 103.01 35.66C102.794 36.044 102.686 36.512 102.686 37.064L100.238 35.912C100.238 34.496 100.55 33.284 101.174 32.276C101.798 31.244 102.65 30.452 103.73 29.9C104.834 29.324 106.082 29.036 107.474 29.036C108.746 29.036 109.874 29.336 110.858 29.936C111.866 30.512 112.658 31.292 113.234 32.276C113.81 33.26 114.098 34.376 114.098 35.624V47H107.834ZM96.4219 47V29.396H102.686V47H96.4219ZM128.714 47L123.17 37.784L128.678 29.396H135.554L128.714 38.864L128.894 36.56L135.914 47H128.714ZM117.41 47V20.756H123.674V47H117.41ZM150.511 47.396C148.567 47.396 146.767 47.072 145.111 46.424C143.455 45.752 142.003 44.828 140.755 43.652C139.531 42.452 138.571 41.048 137.875 39.44C137.203 37.832 136.867 36.092 136.867 34.22C136.867 32.324 137.203 30.584 137.875 29C138.571 27.392 139.531 26 140.755 24.824C142.003 23.648 143.443 22.724 145.075 22.052C146.731 21.38 148.519 21.044 150.439 21.044C152.455 21.044 154.267 21.368 155.875 22.016C157.483 22.64 158.899 23.516 160.123 24.644L155.803 28.964C155.203 28.292 154.459 27.764 153.571 27.38C152.683 26.996 151.639 26.804 150.439 26.804C149.407 26.804 148.459 26.972 147.595 27.308C146.755 27.644 146.023 28.148 145.399 28.82C144.775 29.468 144.283 30.248 143.923 31.16C143.587 32.072 143.419 33.092 143.419 34.22C143.419 35.348 143.587 36.368 143.923 37.28C144.283 38.192 144.775 38.984 145.399 39.656C146.023 40.304 146.755 40.808 147.595 41.168C148.459 41.504 149.407 41.672 150.439 41.672C151.639 41.672 152.695 41.492 153.607 41.132C154.519 40.748 155.299 40.208 155.947 39.512L160.267 43.832C159.019 44.96 157.603 45.836 156.019 46.46C154.459 47.084 152.623 47.396 150.511 47.396ZM166.787 47.036L159.731 29.396H166.427L170.747 43.904H168.119L172.475 29.396H179.171L171.935 47.036H166.787ZM162.611 54.452L167.831 42.968L171.935 47.036L168.911 54.452H162.611ZM189.157 47.396C187.285 47.396 185.593 47 184.081 46.208C182.593 45.416 181.417 44.324 180.553 42.932C179.689 41.54 179.257 39.968 179.257 38.216C179.257 36.44 179.689 34.856 180.553 33.464C181.441 32.072 182.629 30.98 184.117 30.188C185.629 29.372 187.333 28.964 189.229 28.964C190.597 28.964 191.845 29.192 192.973 29.648C194.101 30.104 195.133 30.788 196.069 31.7L192.109 35.66C191.749 35.3 191.329 35.036 190.849 34.868C190.393 34.676 189.853 34.58 189.229 34.58C188.557 34.58 187.945 34.736 187.393 35.048C186.865 35.336 186.433 35.744 186.097 36.272C185.785 36.8 185.629 37.436 185.629 38.18C185.629 38.9 185.785 39.536 186.097 40.088C186.433 40.616 186.865 41.036 187.393 41.348C187.945 41.66 188.557 41.816 189.229 41.816C189.901 41.816 190.477 41.708 190.957 41.492C191.437 41.276 191.857 40.964 192.217 40.556L196.213 44.516C195.229 45.476 194.161 46.196 193.009 46.676C191.881 47.156 190.597 47.396 189.157 47.396ZM198.481 47V20.756H204.745V47H198.481ZM217.322 47.396C215.354 47.396 213.614 47.012 212.102 46.244C210.59 45.452 209.402 44.36 208.538 42.968C207.674 41.576 207.242 39.98 207.242 38.18C207.242 36.404 207.662 34.832 208.502 33.464C209.342 32.072 210.482 30.98 211.922 30.188C213.386 29.372 215.03 28.964 216.854 28.964C218.63 28.964 220.202 29.348 221.57 30.116C222.962 30.86 224.042 31.904 224.81 33.248C225.602 34.568 225.998 36.08 225.998 37.784C225.998 38.144 225.974 38.516 225.926 38.9C225.902 39.26 225.83 39.68 225.71 40.16L210.194 40.232V36.2L223.226 36.092L220.418 37.856C220.394 36.872 220.25 36.068 219.986 35.444C219.722 34.796 219.338 34.304 218.834 33.968C218.33 33.632 217.694 33.464 216.926 33.464C216.134 33.464 215.45 33.656 214.874 34.04C214.298 34.424 213.854 34.964 213.542 35.66C213.23 36.356 213.074 37.196 213.074 38.18C213.074 39.188 213.242 40.052 213.578 40.772C213.914 41.468 214.394 41.996 215.018 42.356C215.642 42.716 216.41 42.896 217.322 42.896C218.186 42.896 218.942 42.752 219.59 42.464C220.262 42.176 220.862 41.732 221.39 41.132L224.666 44.408C223.802 45.392 222.746 46.136 221.498 46.64C220.274 47.144 218.882 47.396 217.322 47.396Z" fill="white"/>
<path fill-rule="evenodd" clip-rule="evenodd" d="M49 47.011C49 47.011 36.9529 45.3939 36.8312 47.011C36.8119 47.2666 36.7988 47.4876 36.7869 47.6872V47.6873L36.7869 47.6874C36.7236 48.7502 36.6964 49.2061 35.9793 51.0537C35.1275 53.2483 34.0323 54.4034 32.8154 54.9809C32.2298 55.1936 30.8673 55.2237 29.3823 55.2565H29.3823H29.3822H29.3822C28.2051 55.2826 26.951 55.3103 25.9457 55.432C26.6937 55.173 28.7585 52.6305 28.7343 51.6312L31.4416 27.0284H1.78479L4.56964 52.1978C8.84273 51.8622 11.6416 53.2483 13.4529 55.432C15.9007 59.1391 15.2922 64.1059 12.7368 65.8759H29.2977C30.1947 65.9438 31.2775 65.936 32.5721 65.8385C47.9049 64.6834 49 51.0537 49 48.8591V47.011ZM22.0808 43.4771C22.2285 42.8087 22.1636 42.4881 21.8847 41.9757L20.6431 39.7023L20.3987 39.8259L20.1846 39.4339L23.6881 37.6627L23.7737 37.8195L25.529 41.0336C25.6505 41.5702 25.5641 42.0079 25.1507 42.6254C24.2169 43.1964 23.6415 43.4699 22.0808 43.4771ZM18.9143 47.5788L21.5078 47.5682C21.8867 47.4973 22.04 47.4103 22.2411 47.1974L24.2752 44.0683L19.624 44.1189C19.1529 43.944 19.1601 43.6674 19.3547 43.0546L18.8962 42.7862L17.4283 45.429L18.9778 48.6471L18.9143 47.5788ZM20.4492 32.7475L21.7999 34.8777L22.7173 34.2729L20.6559 37.2131L17.5458 37.371L17.5475 36.8546C18.1933 36.698 18.443 36.5609 18.355 36.0825L15.9047 32.2784L19.7402 32.3354C20.0336 32.3909 20.1902 32.4721 20.4492 32.7475ZM15.2794 35.3292C15.5909 34.8345 15.8426 34.6153 16.5136 34.3912C15.7 33.1098 15.1592 32.7773 14.1683 32.3037C13.4053 32.2825 12.9712 32.4377 12.5566 32.8152L10.6052 35.9228L10.51 36.0744L13.8974 38.0436L14.1354 37.6646L13.8991 37.5272L15.2794 35.3292ZM8.94533 38.8139L7.74882 41.0277C7.63775 41.3835 7.64649 41.5545 7.74882 41.8247L9.68165 45.0127L11.7986 41.0277C12.1787 40.7079 12.4298 40.8426 12.903 41.2934L13.3632 41.0277L11.6145 38.5482L7.9329 38.3711L8.94533 38.8139ZM11.2463 43.4187C11.7926 43.8554 12.1178 43.9493 12.719 43.9501H15.3881V43.6844H15.8483V47.4923H15.6642H11.8906C11.3404 47.3461 10.9778 47.0689 10.602 46.4296C10.511 45.3687 10.527 44.7514 11.2463 43.4187Z" fill="white"/>
<path fill-rule="evenodd" clip-rule="evenodd" d="M7.5 66C10.5376 66 13 63.5376 13 60.5C13 57.4624 10.5376 55 7.5 55C4.46243 55 2 57.4624 2 60.5C2 63.5376 4.46243 66 7.5 66ZM7.5 64C9.433 64 11 62.433 11 60.5C11 58.567 9.433 57 7.5 57C5.567 57 4 58.567 4 60.5C4 62.433 5.567 64 7.5 64Z" fill="white"/>
</svg>
