<svg width="171" height="35" viewBox="0 0 171 35" fill="none" xmlns="http://www.w3.org/2000/svg">
<path d="M7.884 27.396C6.204 27.396 4.752 27.108 3.528 26.532C2.328 25.932 1.272 25.092 0.36 24.012L4.536 19.872C4.968 20.472 5.472 20.928 6.048 21.24C6.648 21.528 7.32 21.672 8.064 21.672C8.712 21.672 9.288 21.54 9.792 21.276C10.32 20.988 10.728 20.58 11.016 20.052C11.328 19.5 11.484 18.804 11.484 17.964V1.476H17.928V17.676C17.928 19.692 17.52 21.432 16.704 22.896C15.912 24.336 14.76 25.452 13.248 26.244C11.76 27.012 9.972 27.396 7.884 27.396ZM29.693 27.396C28.037 27.396 26.561 27.072 25.265 26.424C23.993 25.752 22.985 24.828 22.241 23.652C21.521 22.452 21.161 21.096 21.161 19.584V9.396H27.425V19.584C27.425 20.064 27.521 20.484 27.713 20.844C27.905 21.204 28.169 21.48 28.505 21.672C28.841 21.864 29.237 21.96 29.693 21.96C30.365 21.96 30.905 21.744 31.313 21.312C31.745 20.88 31.961 20.304 31.961 19.584V9.396H38.225V19.584C38.225 21.12 37.865 22.476 37.145 23.652C36.425 24.828 35.417 25.752 34.121 26.424C32.849 27.072 31.373 27.396 29.693 27.396ZM52.8339 27V17.064C52.8339 16.248 52.5939 15.612 52.1139 15.156C51.6339 14.676 51.0219 14.436 50.2779 14.436C49.7739 14.436 49.3179 14.544 48.9099 14.76C48.5259 14.976 48.2259 15.276 48.0099 15.66C47.7939 16.044 47.6859 16.512 47.6859 17.064L45.2379 15.912C45.2379 14.496 45.5499 13.284 46.1739 12.276C46.7979 11.244 47.6499 10.452 48.7299 9.9C49.8339 9.324 51.0819 9.036 52.4739 9.036C53.7459 9.036 54.8739 9.336 55.8579 9.936C56.8659 10.512 57.6579 11.292 58.2339 12.276C58.8099 13.26 59.0979 14.376 59.0979 15.624V27H52.8339ZM41.4219 27V9.396H47.6859V27H41.4219ZM73.7142 27L68.1702 17.784L73.6782 9.396H80.5542L73.7142 18.864L73.8942 16.56L80.9142 27H73.7142ZM62.4102 27V0.755999H68.6742V27H62.4102ZM95.5114 27.396C93.5674 27.396 91.7674 27.072 90.1114 26.424C88.4554 25.752 87.0034 24.828 85.7554 23.652C84.5314 22.452 83.5714 21.048 82.8754 19.44C82.2034 17.832 81.8674 16.092 81.8674 14.22C81.8674 12.324 82.2034 10.584 82.8754 9C83.5714 7.392 84.5314 6 85.7554 4.824C87.0034 3.648 88.4434 2.724 90.0754 2.052C91.7314 1.38 93.5194 1.044 95.4394 1.044C97.4554 1.044 99.2674 1.368 100.875 2.016C102.483 2.64 103.899 3.516 105.123 4.644L100.803 8.964C100.203 8.292 99.4594 7.764 98.5714 7.38C97.6834 6.996 96.6394 6.804 95.4394 6.804C94.4074 6.804 93.4594 6.972 92.5954 7.308C91.7554 7.644 91.0234 8.148 90.3994 8.82C89.7754 9.468 89.2834 10.248 88.9234 11.16C88.5874 12.072 88.4194 13.092 88.4194 14.22C88.4194 15.348 88.5874 16.368 88.9234 17.28C89.2834 18.192 89.7754 18.984 90.3994 19.656C91.0234 20.304 91.7554 20.808 92.5954 21.168C93.4594 21.504 94.4074 21.672 95.4394 21.672C96.6394 21.672 97.6954 21.492 98.6074 21.132C99.5194 20.748 100.299 20.208 100.947 19.512L105.267 23.832C104.019 24.96 102.603 25.836 101.019 26.46C99.4594 27.084 97.6234 27.396 95.5114 27.396ZM111.787 27.036L104.731 9.396H111.427L115.747 23.904H113.119L117.475 9.396H124.171L116.935 27.036H111.787ZM107.611 34.452L112.831 22.968L116.935 27.036L113.911 34.452H107.611ZM134.157 27.396C132.285 27.396 130.593 27 129.081 26.208C127.593 25.416 126.417 24.324 125.553 22.932C124.689 21.54 124.257 19.968 124.257 18.216C124.257 16.44 124.689 14.856 125.553 13.464C126.441 12.072 127.629 10.98 129.117 10.188C130.629 9.372 132.333 8.964 134.229 8.964C135.597 8.964 136.845 9.192 137.973 9.648C139.101 10.104 140.133 10.788 141.069 11.7L137.109 15.66C136.749 15.3 136.329 15.036 135.849 14.868C135.393 14.676 134.853 14.58 134.229 14.58C133.557 14.58 132.945 14.736 132.393 15.048C131.865 15.336 131.433 15.744 131.097 16.272C130.785 16.8 130.629 17.436 130.629 18.18C130.629 18.9 130.785 19.536 131.097 20.088C131.433 20.616 131.865 21.036 132.393 21.348C132.945 21.66 133.557 21.816 134.229 21.816C134.901 21.816 135.477 21.708 135.957 21.492C136.437 21.276 136.857 20.964 137.217 20.556L141.213 24.516C140.229 25.476 139.161 26.196 138.009 26.676C136.881 27.156 135.597 27.396 134.157 27.396ZM143.481 27V0.755999H149.745V27H143.481ZM162.322 27.396C160.354 27.396 158.614 27.012 157.102 26.244C155.59 25.452 154.402 24.36 153.538 22.968C152.674 21.576 152.242 19.98 152.242 18.18C152.242 16.404 152.662 14.832 153.502 13.464C154.342 12.072 155.482 10.98 156.922 10.188C158.386 9.372 160.03 8.964 161.854 8.964C163.63 8.964 165.202 9.348 166.57 10.116C167.962 10.86 169.042 11.904 169.81 13.248C170.602 14.568 170.998 16.08 170.998 17.784C170.998 18.144 170.974 18.516 170.926 18.9C170.902 19.26 170.83 19.68 170.71 20.16L155.194 20.232V16.2L168.226 16.092L165.418 17.856C165.394 16.872 165.25 16.068 164.986 15.444C164.722 14.796 164.338 14.304 163.834 13.968C163.33 13.632 162.694 13.464 161.926 13.464C161.134 13.464 160.45 13.656 159.874 14.04C159.298 14.424 158.854 14.964 158.542 15.66C158.23 16.356 158.074 17.196 158.074 18.18C158.074 19.188 158.242 20.052 158.578 20.772C158.914 21.468 159.394 21.996 160.018 22.356C160.642 22.716 161.41 22.896 162.322 22.896C163.186 22.896 163.942 22.752 164.59 22.464C165.262 22.176 165.862 21.732 166.39 21.132L169.666 24.408C168.802 25.392 167.746 26.136 166.498 26.64C165.274 27.144 163.882 27.396 162.322 27.396Z" fill="white"/>
</svg>
